<mxfile host="65bd71144e">
    <diagram id="zB29ATW08oZQZ63B3yil" name="Page-1">
        <mxGraphModel dx="2832" dy="2496" grid="1" gridSize="10" guides="1" tooltips="1" connect="1" arrows="1" fold="1" page="1" pageScale="1" pageWidth="850" pageHeight="1100" math="0" shadow="0">
            <root>
                <mxCell id="0"/>
                <mxCell id="1" parent="0"/>
                <mxCell id="126" value="" style="group" parent="1" vertex="1" connectable="0">
                    <mxGeometry x="460" y="-80" width="375" height="240" as="geometry"/>
                </mxCell>
                <mxCell id="127" value="" style="rounded=0;whiteSpace=wrap;html=1;dashed=1;fillColor=none;" parent="126" vertex="1">
                    <mxGeometry width="375" height="240" as="geometry"/>
                </mxCell>
                <mxCell id="128" value="&lt;b&gt;legend&lt;/b&gt;" style="text;html=1;strokeColor=none;fillColor=none;align=center;verticalAlign=middle;whiteSpace=wrap;rounded=0;dashed=1;" parent="126" vertex="1">
                    <mxGeometry width="70" height="30" as="geometry"/>
                </mxCell>
                <mxCell id="131" style="edgeStyle=none;rounded=0;html=1;entryX=0;entryY=0.5;entryDx=0;entryDy=0;strokeColor=#CC0000;startArrow=none;startFill=0;endArrow=classic;endFill=1;" parent="126" source="125" target="130" edge="1">
                    <mxGeometry relative="1" as="geometry">
                        <Array as="points">
                            <mxPoint x="85" y="160"/>
                        </Array>
                    </mxGeometry>
                </mxCell>
                <mxCell id="132" value="to remove" style="edgeLabel;html=1;align=center;verticalAlign=middle;resizable=0;points=[];" parent="131" vertex="1" connectable="0">
                    <mxGeometry x="-0.0212" y="4" relative="1" as="geometry">
                        <mxPoint x="-1" as="offset"/>
                    </mxGeometry>
                </mxCell>
                <mxCell id="125" value="to add" style="rounded=0;whiteSpace=wrap;html=1;strokeColor=#82b366;fillColor=#d5e8d4;" parent="126" vertex="1">
                    <mxGeometry x="25" y="50" width="120" height="60" as="geometry"/>
                </mxCell>
                <mxCell id="130" value="to keep or rename" style="rounded=0;whiteSpace=wrap;html=1;" parent="126" vertex="1">
                    <mxGeometry x="200" y="130" width="120" height="60" as="geometry"/>
                </mxCell>
                <mxCell id="118" value="" style="group" parent="1" vertex="1" connectable="0">
                    <mxGeometry x="-30" y="190" width="1250" height="620" as="geometry"/>
                </mxCell>
                <mxCell id="119" value="" style="rounded=0;whiteSpace=wrap;html=1;dashed=1;fillColor=none;" parent="118" vertex="1">
                    <mxGeometry width="1250" height="550" as="geometry"/>
                </mxCell>
                <mxCell id="120" value="&lt;b&gt;backend&lt;/b&gt;" style="text;html=1;strokeColor=none;fillColor=none;align=center;verticalAlign=middle;whiteSpace=wrap;rounded=0;dashed=1;" parent="118" vertex="1">
                    <mxGeometry width="90" height="30" as="geometry"/>
                </mxCell>
                <mxCell id="39" value="" style="rounded=0;whiteSpace=wrap;html=1;dashed=1;fillColor=none;" parent="118" vertex="1">
                    <mxGeometry x="430" y="300" width="385" height="220" as="geometry"/>
                </mxCell>
                <mxCell id="141" style="edgeStyle=none;html=1;strokeColor=#000000;" edge="1" parent="118" source="71" target="135">
                    <mxGeometry relative="1" as="geometry"/>
                </mxCell>
                <mxCell id="142" style="edgeStyle=none;html=1;entryX=1;entryY=0.25;entryDx=0;entryDy=0;strokeColor=#000000;" edge="1" parent="118" source="65" target="137">
                    <mxGeometry relative="1" as="geometry"/>
                </mxCell>
                <mxCell id="143" style="edgeStyle=none;html=1;entryX=1;entryY=0.25;entryDx=0;entryDy=0;strokeColor=#000000;" edge="1" parent="118" source="67" target="137">
                    <mxGeometry relative="1" as="geometry"/>
                </mxCell>
                <mxCell id="35" value="" style="group" parent="118" vertex="1" connectable="0">
                    <mxGeometry x="580" y="30" width="360" height="220" as="geometry"/>
                </mxCell>
                <mxCell id="36" value="" style="rounded=0;whiteSpace=wrap;html=1;dashed=1;fillColor=none;" parent="35" vertex="1">
                    <mxGeometry width="360" height="220" as="geometry"/>
                </mxCell>
                <mxCell id="37" value="resource" style="text;html=1;strokeColor=none;fillColor=none;align=center;verticalAlign=middle;whiteSpace=wrap;rounded=0;dashed=1;" parent="35" vertex="1">
                    <mxGeometry width="60" height="30" as="geometry"/>
                </mxCell>
                <mxCell id="71" value="tokio_handlers, axum" style="rounded=0;whiteSpace=wrap;html=1;" parent="35" vertex="1">
                    <mxGeometry x="110" y="80" width="120" height="60" as="geometry"/>
                </mxCell>
                <mxCell id="44" value="" style="group" parent="118" vertex="1" connectable="0">
                    <mxGeometry x="845" y="300" width="370" height="220" as="geometry"/>
                </mxCell>
                <mxCell id="45" value="" style="rounded=0;whiteSpace=wrap;html=1;dashed=1;fillColor=none;" parent="44" vertex="1">
                    <mxGeometry width="360" height="220" as="geometry"/>
                </mxCell>
                <mxCell id="46" value="repository" style="text;html=1;strokeColor=none;fillColor=none;align=center;verticalAlign=middle;whiteSpace=wrap;rounded=0;dashed=1;" parent="44" vertex="1">
                    <mxGeometry width="60" height="30" as="geometry"/>
                </mxCell>
                <mxCell id="65" value="postgres_sqlx_handler" style="rounded=0;whiteSpace=wrap;html=1;" parent="44" vertex="1">
                    <mxGeometry x="95" y="40" width="140" height="60" as="geometry"/>
                </mxCell>
                <mxCell id="67" value="in_memory_handler" style="rounded=0;whiteSpace=wrap;html=1;fillColor=#d5e8d4;strokeColor=#82b366;" parent="44" vertex="1">
                    <mxGeometry x="105" y="120" width="120" height="60" as="geometry"/>
                </mxCell>
                <mxCell id="38" value="" style="group" parent="118" vertex="1" connectable="0">
                    <mxGeometry x="435" y="280" width="410" height="220" as="geometry"/>
                </mxCell>
                <mxCell id="40" value="domain" style="text;html=1;strokeColor=none;fillColor=none;align=center;verticalAlign=middle;whiteSpace=wrap;rounded=0;dashed=1;" parent="38" vertex="1">
                    <mxGeometry y="20" width="60" height="30" as="geometry"/>
                </mxCell>
                <mxCell id="74" value="places, items, inventory, users" style="rounded=0;whiteSpace=wrap;html=1;fillColor=default;" parent="118" vertex="1">
                    <mxGeometry x="505" y="420" width="120" height="60" as="geometry"/>
                </mxCell>
                <mxCell id="139" style="edgeStyle=none;html=1;strokeColor=#000000;" edge="1" parent="118" source="74" target="135">
                    <mxGeometry relative="1" as="geometry"/>
                </mxCell>
                <mxCell id="140" style="edgeStyle=none;html=1;entryX=0;entryY=0.5;entryDx=0;entryDy=0;strokeColor=#000000;" edge="1" parent="118" source="74" target="137">
                    <mxGeometry relative="1" as="geometry"/>
                </mxCell>
                <mxCell id="137" value="&amp;lt;storage_handler&amp;gt;" style="rounded=0;whiteSpace=wrap;html=1;fillColor=#d5e8d4;strokeColor=#82b366;" vertex="1" parent="118">
                    <mxGeometry x="665" y="420" width="120" height="60" as="geometry"/>
                </mxCell>
                <mxCell id="135" value="&amp;lt;request_handler&amp;gt;" style="rounded=0;whiteSpace=wrap;html=1;fillColor=#d5e8d4;strokeColor=#82b366;" vertex="1" parent="118">
                    <mxGeometry x="505" y="340" width="120" height="60" as="geometry"/>
                </mxCell>
                <mxCell id="23" style="edgeStyle=none;rounded=0;html=1;entryX=0.5;entryY=0;entryDx=0;entryDy=0;fillColor=#f8cecc;strokeColor=#b85450;" parent="1" source="2" target="3" edge="1">
                    <mxGeometry relative="1" as="geometry"/>
                </mxCell>
                <mxCell id="27" style="edgeStyle=none;rounded=0;html=1;entryX=0.5;entryY=0;entryDx=0;entryDy=0;fillColor=#f8cecc;strokeColor=#b85450;" parent="1" source="2" target="4" edge="1">
                    <mxGeometry relative="1" as="geometry"/>
                </mxCell>
                <mxCell id="2" value="service" style="rounded=0;whiteSpace=wrap;html=1;fillColor=#f8cecc;strokeColor=#b85450;" parent="1" vertex="1">
                    <mxGeometry x="260" y="-10" width="120" height="60" as="geometry"/>
                </mxCell>
                <mxCell id="28" style="edgeStyle=none;rounded=0;html=1;strokeColor=#000000;" parent="1" source="3" target="4" edge="1">
                    <mxGeometry relative="1" as="geometry"/>
                </mxCell>
                <mxCell id="3" value="repository" style="rounded=0;whiteSpace=wrap;html=1;" parent="1" vertex="1">
                    <mxGeometry x="260" y="90" width="120" height="60" as="geometry"/>
                </mxCell>
                <mxCell id="4" value="domain&lt;br&gt;" style="rounded=0;whiteSpace=wrap;html=1;" parent="1" vertex="1">
                    <mxGeometry x="100" y="90" width="120" height="60" as="geometry"/>
                </mxCell>
                <mxCell id="16" style="edgeStyle=none;rounded=0;html=1;entryX=0;entryY=0.5;entryDx=0;entryDy=0;" parent="1" source="5" target="6" edge="1">
                    <mxGeometry relative="1" as="geometry"/>
                </mxCell>
                <mxCell id="5" value="app" style="rounded=0;whiteSpace=wrap;html=1;" parent="1" vertex="1">
                    <mxGeometry x="-60" y="-10" width="120" height="60" as="geometry"/>
                </mxCell>
                <mxCell id="25" style="edgeStyle=none;rounded=0;html=1;fillColor=#f8cecc;strokeColor=#b85450;" parent="1" source="6" target="2" edge="1">
                    <mxGeometry relative="1" as="geometry"/>
                </mxCell>
                <mxCell id="82" style="edgeStyle=none;rounded=0;html=1;entryX=0.5;entryY=0;entryDx=0;entryDy=0;startArrow=none;startFill=0;endArrow=classic;endFill=1;strokeColor=#000000;" parent="1" source="6" target="4" edge="1">
                    <mxGeometry relative="1" as="geometry"/>
                </mxCell>
                <mxCell id="6" value="resource" style="rounded=0;whiteSpace=wrap;html=1;" parent="1" vertex="1">
                    <mxGeometry x="100" y="-10" width="120" height="60" as="geometry"/>
                </mxCell>
                <mxCell id="34" value="" style="group" parent="1" vertex="1" connectable="0">
                    <mxGeometry x="-10" y="260" width="360" height="220" as="geometry"/>
                </mxCell>
                <mxCell id="32" value="" style="rounded=0;whiteSpace=wrap;html=1;dashed=1;fillColor=none;" parent="34" vertex="1">
                    <mxGeometry width="360" height="220" as="geometry"/>
                </mxCell>
                <mxCell id="33" value="app" style="text;html=1;strokeColor=none;fillColor=none;align=center;verticalAlign=middle;whiteSpace=wrap;rounded=0;dashed=1;" parent="34" vertex="1">
                    <mxGeometry width="60" height="30" as="geometry"/>
                </mxCell>
                <mxCell id="49" value="configurations''" style="rounded=0;whiteSpace=wrap;html=1;fillColor=#d5e8d4;strokeColor=#82b366;" parent="34" vertex="1">
                    <mxGeometry x="120" y="140" width="120" height="60" as="geometry"/>
                </mxCell>
                <mxCell id="51" style="edgeStyle=none;rounded=0;html=1;entryX=0.5;entryY=0;entryDx=0;entryDy=0;" parent="34" source="50" target="49" edge="1">
                    <mxGeometry relative="1" as="geometry"/>
                </mxCell>
                <mxCell id="50" value="main" style="rounded=0;whiteSpace=wrap;html=1;" parent="34" vertex="1">
                    <mxGeometry x="120" y="40" width="120" height="60" as="geometry"/>
                </mxCell>
                <mxCell id="144" style="edgeStyle=none;html=1;entryX=0;entryY=0.75;entryDx=0;entryDy=0;strokeColor=#000000;" edge="1" parent="1" source="49" target="36">
                    <mxGeometry relative="1" as="geometry"/>
                </mxCell>
                <mxCell id="145" style="edgeStyle=none;html=1;entryX=0.5;entryY=1;entryDx=0;entryDy=0;strokeColor=#000000;" edge="1" parent="1" source="49" target="45">
                    <mxGeometry relative="1" as="geometry">
                        <Array as="points">
                            <mxPoint x="170" y="710"/>
                            <mxPoint x="530" y="880"/>
                        </Array>
                    </mxGeometry>
                </mxCell>
                <mxCell id="146" value="" style="group" vertex="1" connectable="0" parent="1">
                    <mxGeometry x="1260" y="220" width="360" height="220" as="geometry"/>
                </mxCell>
                <mxCell id="147" value="" style="rounded=0;whiteSpace=wrap;html=1;dashed=1;fillColor=none;" vertex="1" parent="146">
                    <mxGeometry width="360" height="220" as="geometry"/>
                </mxCell>
                <mxCell id="148" value="Frontend" style="text;html=1;strokeColor=none;fillColor=none;align=center;verticalAlign=middle;whiteSpace=wrap;rounded=0;dashed=1;fontStyle=1" vertex="1" parent="146">
                    <mxGeometry width="60" height="30" as="geometry"/>
                </mxCell>
                <mxCell id="149" value="React" style="rounded=0;whiteSpace=wrap;html=1;" vertex="1" parent="146">
                    <mxGeometry x="110" y="80" width="120" height="60" as="geometry"/>
                </mxCell>
                <mxCell id="150" value="" style="group" vertex="1" connectable="0" parent="1">
                    <mxGeometry x="1260" y="510" width="360" height="220" as="geometry"/>
                </mxCell>
                <mxCell id="151" value="" style="rounded=0;whiteSpace=wrap;html=1;dashed=1;fillColor=none;" vertex="1" parent="150">
                    <mxGeometry width="360" height="220" as="geometry"/>
                </mxCell>
                <mxCell id="152" value="db" style="text;html=1;strokeColor=none;fillColor=none;align=center;verticalAlign=middle;whiteSpace=wrap;rounded=0;dashed=1;fontStyle=1" vertex="1" parent="150">
                    <mxGeometry width="60" height="30" as="geometry"/>
                </mxCell>
                <mxCell id="153" value="PostgreSQL" style="rounded=0;whiteSpace=wrap;html=1;" vertex="1" parent="150">
                    <mxGeometry x="110" y="80" width="120" height="60" as="geometry"/>
                </mxCell>
                <mxCell id="155" style="edgeStyle=none;html=1;entryX=0;entryY=0.409;entryDx=0;entryDy=0;entryPerimeter=0;strokeColor=#000000;startArrow=classic;startFill=1;" edge="1" parent="1" source="45" target="151">
                    <mxGeometry relative="1" as="geometry"/>
                </mxCell>
                <mxCell id="158" value="" style="group" vertex="1" connectable="0" parent="1">
                    <mxGeometry x="1050" y="-90" width="360" height="220" as="geometry"/>
                </mxCell>
                <mxCell id="159" value="" style="rounded=0;whiteSpace=wrap;html=1;dashed=1;fillColor=none;" vertex="1" parent="158">
                    <mxGeometry width="360" height="220" as="geometry"/>
                </mxCell>
                <mxCell id="160" value="Browser" style="text;html=1;strokeColor=none;fillColor=none;align=center;verticalAlign=middle;whiteSpace=wrap;rounded=0;dashed=1;fontStyle=1" vertex="1" parent="158">
                    <mxGeometry width="60" height="30" as="geometry"/>
                </mxCell>
                <mxCell id="161" value="User" style="rounded=0;whiteSpace=wrap;html=1;" vertex="1" parent="158">
                    <mxGeometry x="110" y="80" width="120" height="60" as="geometry"/>
                </mxCell>
                <mxCell id="166" style="edgeStyle=none;html=1;entryX=0;entryY=0.5;entryDx=0;entryDy=0;strokeColor=#000000;startArrow=classic;startFill=1;" edge="1" parent="1" source="36" target="147">
                    <mxGeometry relative="1" as="geometry"/>
                </mxCell>
                <mxCell id="170" style="edgeStyle=none;html=1;exitX=1;exitY=0.25;exitDx=0;exitDy=0;entryX=0.25;entryY=1;entryDx=0;entryDy=0;strokeColor=#000000;startArrow=classic;startFill=1;endArrow=classic;endFill=1;" edge="1" parent="1" source="36" target="159">
                    <mxGeometry relative="1" as="geometry"/>
                </mxCell>
                <mxCell id="173" style="edgeStyle=none;html=1;exitX=0.25;exitY=0;exitDx=0;exitDy=0;entryX=0.5;entryY=1;entryDx=0;entryDy=0;strokeColor=#000000;startArrow=classic;startFill=1;endArrow=classic;endFill=1;" edge="1" parent="1" source="147" target="159">
                    <mxGeometry relative="1" as="geometry"/>
                </mxCell>
            </root>
        </mxGraphModel>
    </diagram>
</mxfile>